<svg width="30" height="30" viewBox="0 0 30 30" fill="none" xmlns="http://www.w3.org/2000/svg">
<circle cx="15" cy="15" r="14.25" stroke="#D7D7D7" stroke-width="1.5"/>
<path fill-rule="evenodd" clip-rule="evenodd" d="M15.0938 24.5735C20.2714 24.5735 24.4688 20.3762 24.4688 15.1985C24.4688 10.0208 20.2714 5.82349 15.0938 5.82349C9.91608 5.82349 5.71875 10.0208 5.71875 15.1985C5.71875 20.3762 9.91608 24.5735 15.0938 24.5735ZM19.5825 11.5427C20.0782 11.4798 20.5538 11.35 21 11.1543C20.6655 11.6522 20.2552 12.085 19.767 12.4315C19.7723 12.5357 19.776 12.6407 19.776 12.7495C19.776 16 17.301 19.75 12.774 19.75C11.3812 19.75 10.0897 19.3488 9 18.646C9.1935 18.6707 9.387 18.6798 9.58875 18.6798C10.7393 18.6798 11.802 18.2852 12.639 17.6305C11.5635 17.6073 10.659 16.891 10.3403 15.9167C10.4895 15.9497 10.6485 15.9587 10.806 15.9587C11.0325 15.9587 11.2508 15.9325 11.451 15.8778C10.3327 15.649 9.48 14.656 9.48 13.4605V13.4335C9.8085 13.6143 10.1962 13.729 10.5915 13.7365C9.9375 13.2993 9.49875 12.544 9.49875 11.692C9.49875 11.2382 9.62325 10.8168 9.8355 10.4485C11.0512 11.9418 12.861 12.922 14.9062 13.0217C14.8658 12.8432 14.8492 12.6558 14.8492 12.4608C14.8492 11.1055 15.9457 10 17.3077 10C18.0097 10 18.6532 10.2977 19.1047 10.7785C19.6642 10.6667 20.1892 10.4665 20.6648 10.183C20.4818 10.7597 20.0925 11.2382 19.5825 11.5427Z" fill="#D7D7D7"/>
</svg>
